PathFileType	4	(X/Y/Z)	 s11c0102.trc
DataRate	CameraRate	NumFrames	NumMarkers	Units	OrigDataRate	OrigDataStartFrame	OrigNumFrames
200	200	6	48	mm	200	251	2000
Frame#	Time	racr			lacr			c7			jug			rlel			rdr			llel			ldr			s2			lic			ric			lasi			rasi			rpsi			lpsi			rgt			lgt			rth1			rth2			rth3			rth4			rlfc			rmfc			rsh1			rsh2			rsh3			rsh4			rlmal			rcal			rtoe			rmt5			lth1			lth2			lth4			lth3			llfc			lmfc			llmal			lcal			lmt5			lsh1			lsh2			lsh3			lsh4			ltoe			SBIKE			LBIKE			RBIKE			
		X1	Y1	Z1	X2	Y2	Z2	X3	Y3	Z3	X4	Y4	Z4	X5	Y5	Z5	X6	Y6	Z6	X7	Y7	Z7	X8	Y8	Z8	X9	Y9	Z9	X10	Y10	Z10	X11	Y11	Z11	X12	Y12	Z12	X13	Y13	Z13	X14	Y14	Z14	X15	Y15	Z15	X16	Y16	Z16	X17	Y17	Z17	X18	Y18	Z18	X19	Y19	Z19	X20	Y20	Z20	X21	Y21	Z21	X22	Y22	Z22	X23	Y23	Z23	X24	Y24	Z24	X25	Y25	Z25	X26	Y26	Z26	X27	Y27	Z27	X28	Y28	Z28	X29	Y29	Z29	X30	Y30	Z30	X31	Y31	Z31	X32	Y32	Z32	X33	Y33	Z33	X34	Y34	Z34	X35	Y35	Z35	X36	Y36	Z36	X37	Y37	Z37	X38	Y38	Z38	X39	Y39	Z39	X40	Y40	Z40	X41	Y41	Z41	X42	Y42	Z42	X43	Y43	Z43	X44	Y44	Z44	X45	Y45	Z45	X46	Y46	Z46	X47	Y47	Z47	X48	Y48	Z48	
251	1.2550	475.351418	1365.426289	-25.932601	522.537850	1355.834001	-335.722991	434.866267	1467.195844	-202.756640	446.269955	1283.676040	-201.445365	514.713801	1095.421034	53.584207	760.730340	937.332648	-35.047820	586.357897	1146.398434	-549.496404	790.235691	921.358044	-438.577500	-120.632294	1215.414273	-265.269918	108.806670	1225.986264	-454.792710	82.964697	1224.239415	-52.099652	134.559295	1152.610685	-428.463786	114.566485	1158.328278	-92.524112	-78.238542	1289.407872	-216.269546	-77.719313	1279.420227	-310.700939	48.146307	1084.899532	-46.318771	20.389290	1093.946357	-470.022665	159.812920	988.743008	-43.476978	240.003499	949.714989	-52.385438	289.216653	878.617391	-65.369914	263.077293	978.188547	-58.922887	368.151976	803.903470	-81.563385	374.286337	786.685058	-207.048338	344.718794	642.241190	-64.410086	353.127062	556.140937	-80.790805	320.142647	475.250281	-80.199644	376.816875	555.352552	-113.128594	285.472246	341.539905	-90.501129	221.679492	313.379530	-137.660838	509.834880	318.316792	-128.306328	443.039275	282.385817	-60.146063	146.466178	1009.611858	-484.053653	227.173581	980.618677	-480.744097	248.671336	1008.911436	-470.910001	284.884040	911.407258	-480.500034	382.144704	814.897356	-453.589226	393.132209	810.286347	-325.488956	74.656283	527.209602	-411.479017	5.921517	529.007571	-377.072712	128.987780	360.416399	-442.328416	298.065670	722.000807	-468.934937	256.018601	651.339992	-446.061258	180.747718	605.190977	-438.855519	278.901374	635.042351	-418.999059	214.749380	313.917699	-375.773750	-204.322580	955.764235	-262.589909	1.381923	82.476504	-461.018000	-15.220857	80.930250	-62.401854	
252	1.2600	478.437867	1366.444268	-27.435824	522.599708	1356.251342	-338.337672	436.037035	1468.135947	-203.835318	447.793832	1284.954721	-202.718464	516.137747	1096.603174	53.736462	761.072281	937.368119	-35.075922	584.042533	1144.770994	-550.055043	790.144670	921.324896	-438.450047	-119.815256	1216.126835	-263.480092	109.013415	1228.342656	-453.599608	84.853366	1223.394757	-51.001865	134.271240	1154.561510	-427.145126	115.645874	1157.598045	-91.425841	-77.441857	1290.027438	-213.733495	-77.253997	1281.022952	-308.700874	48.281894	1083.317934	-45.687674	21.754984	1097.232851	-469.719577	158.016693	985.173043	-42.841005	237.539235	944.628979	-52.235135	285.259387	872.682536	-65.742101	261.098699	972.758267	-58.668136	362.448046	796.597228	-82.304907	366.942941	778.360290	-206.314587	339.888358	635.016256	-65.039013	348.956178	548.840675	-81.541457	316.744940	467.844925	-81.041963	372.501638	548.261735	-114.044267	283.011232	333.987886	-90.852805	219.355581	305.750197	-138.000482	507.472443	310.998315	-128.480031	440.670177	274.853099	-60.254305	148.792817	1014.446289	-483.475835	229.818108	986.289429	-479.951371	250.926495	1014.771803	-469.769380	288.304546	917.784173	-480.052025	386.368309	822.342874	-453.352173	397.813721	818.151786	-325.312331	78.727631	534.979893	-411.654360	10.534577	537.442203	-376.760891	131.579940	367.597120	-442.222623	302.363359	729.486082	-468.873898	260.119848	658.886189	-445.910437	184.843640	612.815454	-438.772291	283.079635	642.424906	-419.002182	216.952720	320.356998	-375.693848	-204.241923	955.858694	-262.571040	1.387205	82.510677	-461.018673	-15.222922	80.942333	-62.407127	
253	1.2650	481.465171	1367.700244	-29.233519	522.555085	1356.760014	-341.131008	437.236959	1469.253755	-205.002605	449.424889	1286.123472	-204.124113	517.808081	1097.916087	53.856163	761.364058	937.372879	-35.208024	582.084191	1143.400197	-550.444541	790.057362	921.277836	-438.167219	-118.941073	1216.769884	-261.693947	109.307017	1230.984449	-452.664855	86.601326	1222.777192	-49.743542	134.060397	1156.596806	-425.831114	117.044361	1156.637691	-89.839887	-76.647424	1290.597734	-211.119919	-76.881563	1282.307363	-306.260895	48.378895	1081.636518	-45.018684	23.236763	1100.525151	-469.496115	156.226149	981.873670	-42.343224	234.936743	939.646344	-52.099454	281.214190	866.848286	-66.216116	259.037317	967.309506	-58.551722	356.611543	789.491177	-83.105223	357.790835	770.507760	-208.305087	334.560722	627.931335	-65.716387	345.422558	542.132457	-81.709140	312.934952	460.624890	-81.818184	367.978461	541.745538	-114.475295	279.993217	326.746123	-91.171426	216.738326	298.159400	-138.308950	504.920105	303.465843	-128.658027	438.061507	267.489862	-60.442511	151.167177	1019.301403	-482.847026	232.457986	992.066460	-479.082749	253.166747	1020.619394	-468.374376	291.801564	924.336544	-479.546773	390.721584	829.982436	-453.049975	400.887103	824.679608	-325.631736	82.995293	542.675814	-411.726635	14.812053	545.540841	-376.710120	134.499634	374.609246	-441.953780	306.633095	737.116909	-468.547537	264.339924	666.467024	-445.701515	189.070857	620.363161	-438.634093	287.496955	649.996455	-419.184933	219.431302	326.710173	-375.651923	-204.147382	955.822296	-262.844520	1.386863	82.543071	-461.021439	-15.212862	80.966207	-62.428132	
254	1.2700	484.575813	1368.703733	-31.170465	523.542991	1358.551144	-345.637743	438.305109	1470.411469	-206.359541	451.036661	1287.253511	-205.716127	519.701172	1099.261467	54.074068	761.678399	937.413189	-35.314301	580.528554	1142.320243	-550.563212	790.007943	921.274932	-437.825510	-118.095156	1217.547700	-259.878550	109.477356	1233.565488	-451.616240	88.522176	1221.966037	-48.771453	133.751121	1158.706037	-424.400639	118.005797	1155.795475	-88.684044	-75.609521	1291.379773	-208.554041	-76.386344	1283.580459	-303.884270	48.474722	1079.916414	-44.198159	24.649915	1103.773355	-469.146087	154.409550	978.240437	-41.856802	232.241061	934.650555	-52.012744	276.968655	861.188559	-66.635014	256.747372	961.538502	-59.102118	350.557571	782.519666	-83.871820	351.967615	762.144373	-207.378896	328.983612	621.126433	-66.255673	340.522156	535.452154	-82.138517	308.711817	453.548361	-82.341908	363.016380	535.217655	-114.914927	277.115059	319.257964	-91.313620	213.829000	290.940101	-138.490573	501.973186	296.112895	-128.708582	435.073345	260.169043	-60.675644	153.519037	1024.211587	-482.190778	235.110840	997.985164	-478.206594	255.407126	1026.677187	-467.094921	295.257278	930.983733	-479.047480	394.992384	837.773820	-452.690368	404.850839	831.202515	-324.697809	87.376759	550.298013	-411.792881	19.244881	553.515844	-376.627170	137.753770	381.719361	-441.705191	310.905441	744.878671	-468.279696	269.260251	674.738408	-446.147576	193.411013	627.992325	-438.426759	291.707279	657.576385	-418.852578	222.287452	333.134524	-375.545186	-204.096376	955.855102	-262.791353	1.409606	82.538329	-461.003430	-15.196221	80.953951	-62.406811	
255	1.2750	487.667899	1369.949762	-33.305309	523.342285	1359.541204	-348.810920	439.360844	1471.605142	-207.701730	452.595848	1288.782117	-207.471854	521.790869	1100.790338	54.317181	762.027860	937.478936	-35.425470	579.386460	1141.526535	-550.516237	790.048718	921.293706	-437.448886	-117.172417	1218.126278	-258.080637	109.807324	1236.268816	-450.652329	90.333774	1221.293666	-47.633942	133.413322	1160.894641	-422.874041	119.117192	1154.908895	-87.564276	-74.759872	1291.846763	-205.985972	-75.766540	1284.759519	-301.815081	48.440890	1078.146053	-43.411365	26.037343	1106.959635	-468.790839	152.710001	975.324122	-40.978527	229.417136	929.662074	-51.913694	272.536874	855.382118	-66.808018	254.475682	956.207235	-58.769087	344.472846	775.595707	-84.646098	344.924189	753.795140	-207.535896	323.071210	614.504446	-66.673360	335.216840	529.037182	-82.478824	303.910177	446.836824	-82.613730	357.925633	528.811425	-115.381471	273.686484	312.212081	-91.575911	210.501729	283.879200	-138.687936	498.787844	288.859754	-129.000714	431.774128	252.969357	-60.776369	155.693588	1029.235429	-481.483281	237.688511	1003.935647	-477.277971	257.562336	1032.832459	-465.842930	298.702546	937.774538	-478.518616	399.203965	845.685501	-452.414299	408.862545	838.130115	-324.189329	91.757969	557.750759	-411.765433	23.951605	561.295096	-376.599007	141.308786	388.726228	-441.414392	315.180950	752.640091	-467.921261	273.566568	682.368839	-445.835734	197.873247	635.407734	-437.761107	296.062932	665.232700	-418.643530	225.416887	339.710267	-375.382133	-204.044644	955.901328	-262.746514	1.450603	82.471993	-461.074681	-15.201367	80.960201	-62.409878	
256	1.2800	490.780987	1371.105516	-35.582477	522.976833	1360.693937	-351.979228	440.330829	1472.852759	-209.237724	454.134919	1290.014613	-209.395456	524.068266	1102.378015	54.606476	762.474236	937.526206	-35.552888	578.599381	1140.930253	-550.337438	790.221978	921.328017	-437.130291	-116.175055	1218.671856	-256.383693	110.016759	1238.930634	-449.638895	92.007901	1220.682517	-46.417046	133.114585	1163.030307	-421.323081	120.606457	1154.458755	-86.137124	-73.859586	1292.240813	-203.395072	-75.155093	1285.897180	-299.459859	48.369684	1076.311784	-42.634654	27.460139	1110.275453	-468.478093	151.410645	972.096838	-39.361742	226.511591	924.865080	-51.792121	268.039300	849.745126	-67.305008	252.028806	950.772562	-58.614679	338.049759	768.812950	-85.222618	336.509364	746.133033	-208.581825	316.893538	608.154674	-67.070143	329.544517	522.617069	-82.834450	298.841406	440.276508	-82.782133	353.138724	522.770497	-115.799912	270.197222	305.176536	-91.592295	206.963388	277.122327	-138.859302	495.234537	281.855480	-129.113732	428.191080	245.879093	-61.032262	157.919901	1034.123392	-480.763876	240.189593	1009.956187	-476.306196	259.649950	1039.005828	-464.521674	302.043325	944.583984	-477.880697	403.269192	853.733506	-452.175262	412.776105	845.410710	-323.241104	96.279132	565.200151	-411.702204	28.516591	568.761957	-376.322987	145.144433	395.759413	-441.209249	319.445253	760.547054	-467.583929	277.315775	689.532323	-444.971533	202.308810	643.035577	-437.542503	300.501118	672.979311	-418.586851	229.013807	346.232685	-375.249128	-203.965431	955.874407	-262.606897	1.464394	82.478986	-461.069052	-15.185072	80.979129	-62.401601	
